<svg width="200" height="72" viewBox="0 0 200 72" fill="none" xmlns="http://www.w3.org/2000/svg">
<path d="M200 0H0V72H200V0Z" fill="#B70E13"/>
<path d="M24.4235 43H18.5765C18.2471 43 18 42.7566 18 42.4321V20.5679C18 20.2434 18.2471 20 18.5765 20H24.4235C24.7529 20 25 20.2434 25 20.5679V42.4321C25 42.7566 24.7529 43 24.4235 43Z" fill="white"/>
<path d="M41.5 29.7933V33.2474C41.5 33.5724 41.7382 33.8163 42.0559 33.8163H48.25V37.2703H37.0132C35.7824 37.2703 34.75 36.6608 34.75 34.9541V28.0459C34.75 26.3392 35.7426 25.7297 37.0132 25.7297H52.2206C52.5382 25.7297 52.7765 25.4859 52.7765 25.1608V20.5689C52.7765 20.2438 52.5382 20 52.2206 20H37.0132C31.0176 20 28 22.1943 28 28.0459V34.9541C28 40.8057 31.0176 43 37.0132 43H48.25H54.4441C54.7618 43 55 42.7562 55 42.4311V29.7526C55 29.4276 54.7618 29.1837 54.4441 29.1837H42.0559C41.7382 29.2244 41.5 29.4682 41.5 29.7933Z" fill="white"/>
<path d="M137.987 20H120.556C120.238 20 120 20.2434 120 20.5679V42.4321C120 42.7566 120.238 43 120.556 43H126.194C126.512 43 126.75 42.7566 126.75 42.4321V25.7601H137.987C139.218 25.7601 140.25 26.3686 140.25 28.0723V42.4321C140.25 42.7566 140.488 43 140.806 43H146.444C146.762 43 147 42.7566 147 42.4321V28.0723C147 22.231 143.982 20 137.987 20Z" fill="white"/>
<path d="M86.1945 20H80.1921C79.8539 20 79.6003 20.2438 79.6003 20.5689V34.9541C79.6003 36.6608 78.5435 37.2703 77.1908 37.2703H67.5954C66.285 37.2703 65.186 36.6608 65.186 34.9541V20.5689C65.186 20.2438 64.9324 20 64.5942 20H58.5918C58.2536 20 58 20.2438 58 20.5689V34.9541C58 40.8057 61.2126 43 67.5954 43H77.1908C83.5737 43 86.7863 40.8057 86.7863 34.9541V20.5689C86.7863 20.2845 86.5326 20 86.1945 20L96 26.1638Z" fill="white"/>
<path d="M169.528 20H153.547C153.213 20 152.963 20.2438 152.963 20.5689V25.1608C152.963 25.4859 153.213 25.7297 153.547 25.7297H169.528C170.822 25.7297 171.906 26.3392 171.906 28.0459V29.1837H159.472C151.794 29.1837 150 31.947 150 35.8481C150 41.8622 153.171 43 159.472 43H178.416C178.75 43 179 42.7562 179 42.4311V28.0459C179 22.235 175.829 20 169.528 20ZM171.906 37.2703H158.304C157.01 37.2703 155.925 36.8233 155.925 35.523C155.925 34.3445 156.76 33.7756 158.304 33.7756H171.906V37.2703Z" fill="white"/>
<path d="M108.875 20H91.7914C91.4345 20 91.1669 20.2438 91.1669 20.5689V25.1608C91.1669 25.4859 91.4345 25.7297 91.7914 25.7297H108.875C110.258 25.7297 111.417 26.3392 111.417 28.0459V29.1837H98.1252C89.918 29.1837 88 31.947 88 35.8481C88 41.8622 91.3899 43 98.1252 43H118.376C118.732 43 119 42.7562 119 42.4311V28.0459C119 22.235 115.61 20 108.875 20ZM111.417 37.2703H96.8763C95.4935 37.2703 94.3338 36.8233 94.3338 35.523C94.3338 34.3445 95.2259 33.7756 96.8763 33.7756H111.417V37.2703Z" fill="white"/>
<path d="M147.141 47.6562H149.188C149.49 47.6562 149.802 47.6667 150.125 47.6875C150.448 47.7083 150.763 47.7526 151.07 47.8203C151.378 47.888 151.669 47.9896 151.945 48.125C152.221 48.2552 152.461 48.4323 152.664 48.6562C152.872 48.8802 153.036 49.1589 153.156 49.4922C153.281 49.8203 153.344 50.2161 153.344 50.6797V51.3281C153.344 51.6823 153.292 52.0078 153.188 52.3047C153.089 52.6016 152.956 52.8646 152.789 53.0938C152.622 53.3177 152.432 53.5052 152.219 53.6562C152.005 53.8021 151.786 53.901 151.562 53.9531V54.0156C152.224 54.1354 152.721 54.4505 153.055 54.9609C153.393 55.4661 153.562 56.1146 153.562 56.9062V57.5859C153.562 58.0703 153.508 58.4922 153.398 58.8516C153.294 59.2057 153.146 59.5104 152.953 59.7656C152.76 60.0156 152.531 60.2214 152.266 60.3828C152 60.5443 151.708 60.6719 151.391 60.7656C151.073 60.8542 150.734 60.9167 150.375 60.9531C150.016 60.9844 149.646 61 149.266 61H147.141V47.6562ZM149.516 53.3672C149.786 53.3672 150.034 53.3359 150.258 53.2734C150.482 53.2057 150.672 53.1042 150.828 52.9688C150.99 52.8281 151.112 52.6484 151.195 52.4297C151.284 52.2057 151.328 51.9375 151.328 51.625V51.0781C151.328 50.7656 151.297 50.4896 151.234 50.25C151.172 50.0104 151.068 49.8073 150.922 49.6406C150.781 49.474 150.594 49.349 150.359 49.2656C150.13 49.1771 149.849 49.1328 149.516 49.1328H149.125V53.3672H149.516ZM149.703 59.5938C149.974 59.5938 150.219 59.5599 150.438 59.4922C150.661 59.4193 150.852 59.3099 151.008 59.1641C151.169 59.013 151.292 58.8229 151.375 58.5938C151.464 58.3646 151.508 58.0938 151.508 57.7812V56.7422C151.508 56.4297 151.477 56.1536 151.414 55.9141C151.352 55.6693 151.247 55.4661 151.102 55.3047C150.961 55.138 150.776 55.013 150.547 54.9297C150.318 54.8411 150.036 54.7969 149.703 54.7969H149.125V59.5938H149.703ZM156.128 47.6562H158.152V59.4062H160.909V61H156.128V47.6562ZM165.944 61.1172C165.73 61.1172 165.498 61.099 165.248 61.0625C164.998 61.0312 164.751 60.9609 164.506 60.8516C164.261 60.7422 164.024 60.5885 163.795 60.3906C163.571 60.1875 163.371 59.9219 163.194 59.5938C163.022 59.2656 162.884 58.862 162.78 58.3828C162.676 57.8984 162.623 57.3229 162.623 56.6562V51.9297C162.623 51.2578 162.676 50.6849 162.78 50.2109C162.889 49.7318 163.032 49.3307 163.209 49.0078C163.386 48.6797 163.587 48.4193 163.811 48.2266C164.04 48.0339 164.277 47.888 164.522 47.7891C164.772 47.6849 165.019 47.6172 165.264 47.5859C165.509 47.5547 165.735 47.5391 165.944 47.5391C166.142 47.5391 166.36 47.5547 166.6 47.5859C166.845 47.612 167.087 47.6745 167.327 47.7734C167.571 47.8672 167.808 48.0104 168.038 48.2031C168.267 48.3906 168.47 48.6484 168.647 48.9766C168.824 49.2995 168.965 49.7031 169.069 50.1875C169.178 50.6667 169.233 51.2474 169.233 51.9297V56.6562C169.233 57.3177 169.178 57.888 169.069 58.3672C168.959 58.8411 168.816 59.2448 168.639 59.5781C168.462 59.9062 168.256 60.1719 168.022 60.375C167.793 60.5729 167.556 60.7292 167.311 60.8438C167.071 60.9531 166.832 61.026 166.592 61.0625C166.353 61.099 166.136 61.1172 165.944 61.1172ZM165.944 59.5938C166.142 59.5938 166.314 59.5599 166.459 59.4922C166.61 59.4245 166.733 59.3073 166.827 59.1406C166.926 58.974 166.998 58.7552 167.045 58.4844C167.097 58.2083 167.123 57.862 167.123 57.4453V51.375C167.123 50.9479 167.097 50.5911 167.045 50.3047C166.998 50.0182 166.926 49.7891 166.827 49.6172C166.733 49.4401 166.61 49.3151 166.459 49.2422C166.314 49.1693 166.142 49.1328 165.944 49.1328C165.741 49.1328 165.564 49.1693 165.413 49.2422C165.261 49.3151 165.136 49.4401 165.038 49.6172C164.939 49.7891 164.863 50.0182 164.811 50.3047C164.764 50.5911 164.741 50.9479 164.741 51.375V57.4453C164.741 57.862 164.764 58.2083 164.811 58.4844C164.863 58.7552 164.939 58.974 165.038 59.1406C165.136 59.3073 165.261 59.4245 165.413 59.4922C165.564 59.5599 165.741 59.5938 165.944 59.5938ZM174.642 61.125C174.486 61.125 174.304 61.1068 174.095 61.0703C173.887 61.0391 173.671 60.9688 173.447 60.8594C173.228 60.75 173.012 60.5964 172.798 60.3984C172.585 60.1953 172.392 59.9297 172.22 59.6016C172.054 59.2682 171.918 58.862 171.814 58.3828C171.71 57.8984 171.658 57.3229 171.658 56.6562V51.9297C171.658 51.2578 171.712 50.6849 171.822 50.2109C171.931 49.7318 172.077 49.3307 172.259 49.0078C172.442 48.6797 172.65 48.4193 172.884 48.2266C173.124 48.0339 173.371 47.888 173.627 47.7891C173.882 47.6849 174.134 47.6172 174.384 47.5859C174.634 47.5547 174.866 47.5391 175.08 47.5391C175.621 47.5391 176.077 47.6146 176.447 47.7656C176.822 47.9115 177.124 48.1146 177.353 48.375C177.587 48.6302 177.754 48.9297 177.853 49.2734C177.957 49.6172 178.009 49.9818 178.009 50.3672C178.009 50.6536 177.991 50.9193 177.955 51.1641C177.923 51.4036 177.879 51.6693 177.822 51.9609H176.205V51.3281C176.205 49.8646 175.811 49.1328 175.025 49.1328C174.811 49.1328 174.627 49.1693 174.47 49.2422C174.314 49.3151 174.184 49.4401 174.08 49.6172C173.976 49.7891 173.897 50.0182 173.845 50.3047C173.798 50.5911 173.775 50.9479 173.775 51.375V57.4219C173.775 57.8385 173.798 58.1849 173.845 58.4609C173.897 58.737 173.973 58.9583 174.072 59.125C174.176 59.2917 174.304 59.4115 174.455 59.4844C174.611 59.5521 174.796 59.5859 175.009 59.5859C175.233 59.5859 175.426 59.5286 175.587 59.4141C175.749 59.2943 175.882 59.1328 175.986 58.9297C176.09 58.7266 176.166 58.487 176.212 58.2109C176.265 57.9349 176.291 57.6354 176.291 57.3125V55.5703H175.252V54.2422H178.259V61H176.916L176.697 59.7344C176.442 60.2292 176.147 60.5859 175.814 60.8047C175.486 61.0182 175.095 61.125 174.642 61.125Z" fill="white"/>
</svg>
