<svg height="239" viewBox="0 0 780 239" width="780" xmlns="http://www.w3.org/2000/svg"><g fill="none"><path d="m137.794181 238.223229h.276043 137.877627l-68.938813-119.060222-68.938814-119.06022269-68.9388143 119.06022269-68.93881394 119.060222h69.20559644l16.9632909-29.296315 17.2347039-29.765055 17.234703 29.765055zm.276043-59.217617h-34.469407l17.234703-29.765056 17.234704-29.765055 17.234703 29.765055 17.234704 29.765056z" fill="#e76547"/><path d="m383.142407 179.542022-4.583099-13.016562h-36.525911l-4.583099 13.016562h-27.081949l34.859329-90.4379897h30.137349l34.859329 90.4379897zm-22.776614-67.387827-11.804952 34.032887h23.471023zm92.512609 69.014898c-6.388594 0-12.476185-1.084703-18.262955-3.254141s-10.879052-5.287958-15.276997-9.355654-7.893102-8.971456-10.485575-14.711427-3.88869-12.225589-3.88869-19.457049c0-7.141066 1.319364-13.604087 3.958131-19.389254 2.638767-5.785168 6.226511-10.711526 10.763338-14.779222 4.536828-4.0676962 9.83743-7.1862164 15.901965-9.3556543s12.568767-3.2541405 19.512892-3.2541405c5.184946 0 9.860586.6101452 14.02706 1.830454 4.166475 1.2203089 7.869952 2.8473629 11.110544 4.8812109 3.240591 2.033848 6.064492 4.3840372 8.471789 7.0506379 2.407296 2.666601 4.397915 5.400955 5.971917 8.203146l-19.998978 10.169189c-1.759178-2.982977-4.328466-5.649538-7.707939-7.999762-3.379474-2.350224-7.337566-3.525319-11.874393-3.525319-3.796122 0-7.268132.655341-10.416135 1.966043-3.148002 1.310702-5.879317 3.141138-8.194025 5.491363-2.314708 2.350224-4.097007 5.129775-5.346949 8.338735s-1.874904 6.66645-1.874904 10.372573.624962 7.141015 1.874904 10.304778c1.249942 3.163764 3.032241 5.920717 5.346949 8.270941s5.046023 4.203258 8.194025 5.559157c3.148003 1.355899 6.620013 2.033838 10.416135 2.033838 5.184946 0 9.513385-1.242889 12.985447-3.728703s5.995056-5.446149 7.569057-8.881092h-24.304313v-20.473968h50.552972c0 8.587359-1.13419 16.202875-3.402604 22.846779-2.268414 6.643903-5.532103 12.248201-9.791166 16.813059-4.259063 4.564859-9.420785 8.044947-15.48532 10.440368s-12.846528 3.593114-20.346182 3.593114zm55.28651-1.627071v-90.4379897h67.913195v20.3383787h-44.025527v14.101276h43.053355v20.338378h-43.053355v15.321579h44.025527v20.338378zm141.954526 0-39.164665-52.337427v52.337427h-23.887668v-90.4379897h24.582077l37.498083 49.7612327v-49.7612327h24.02655v90.4379897zm80.367771 1.627071c-7.129301 0-13.702973-1.152497-19.721214-3.457525-6.018241-2.305027-11.249403-5.51394-15.693642-9.626832-4.444239-4.112893-7.916249-9.039251-10.416134-14.779222s-3.749809-12.044805-3.749809-18.914692 1.249924-13.174721 3.749809-18.914692 5.971895-10.666329 10.416134-14.779222c4.444239-4.1128926 9.675401-7.3218047 15.693642-9.6268325 6.018241-2.3050277 12.591913-3.4575243 19.721214-3.4575243 7.036713 0 13.587238 1.1524966 19.651773 3.4575243 6.064536 2.3050278 11.295697 5.5139399 15.693643 9.6268325 4.397945 4.112893 7.846808 9.039251 10.346693 14.779222s3.749808 12.044805 3.749808 18.914692-1.249923 13.174721-3.749808 18.914692-5.948748 10.666329-10.346693 14.779222c-4.397946 4.112892-9.629107 7.321805-15.693643 9.626832-6.064535 2.305028-12.61506 3.457525-19.651773 3.457525zm0-20.609557c3.796121 0 7.244985-.677939 10.346694-2.033838 3.101708-1.355899 5.740436-3.208933 7.916262-5.559157 2.175825-2.350224 3.865537-5.107177 5.069185-8.270941 1.203648-3.163763 1.805463-6.598655 1.805463-10.304778s-.601815-7.141015-1.805463-10.304779c-1.203648-3.163763-2.89336-5.920716-5.069185-8.27094-2.175826-2.350225-4.814554-4.203258-7.916262-5.559157-3.101709-1.355899-6.550573-2.033838-10.346694-2.033838s-7.244984.677939-10.346693 2.033838-5.763583 3.208932-7.985703 5.559157c-2.22212 2.350224-3.934978 5.107177-5.138626 8.27094-1.203648 3.163764-1.805463 6.598656-1.805463 10.304779s.601815 7.141015 1.805463 10.304778c1.203648 3.163764 2.916506 5.920717 5.138626 8.270941s4.883994 4.203258 7.985703 5.559157 6.550572 2.033838 10.346693 2.033838z" fill="#fff"/></g></svg>